<svg width="116" height="116" viewBox="0 0 116 116" fill="none" xmlns="http://www.w3.org/2000/svg">
<circle cx="58" cy="58" r="46" fill="black"/>
<path fill-rule="evenodd" clip-rule="evenodd" d="M43.5747 34.855C42.0685 36.6381 42.0081 37.5272 42.0081 57.9909C42.0081 84.5714 41.3007 82.9819 53.1223 82.9819C57.5115 82.9819 62.3987 82.62 63.9827 82.1786C68.1557 81.0136 72.1708 77.6197 74.2158 73.5283C75.8708 70.2168 76 69.0918 76 57.9909C76 46.89 75.8708 45.7651 74.2158 42.4536C72.1708 38.3621 68.1557 34.9683 63.9827 33.8032C62.3987 33.3618 57.5115 33 53.1223 33C45.3997 33 45.0899 33.0605 43.5747 34.855ZM55.1794 38.3298C56.1883 39.2696 56.3666 41.8074 56.3666 55.1934V70.9503L61.4677 71.158C66.0163 71.3438 66.5937 71.529 66.7985 72.8693C67.2277 75.6697 63.7219 77.3501 57.4526 77.3501C49.0989 77.3501 49.5032 78.4138 49.7413 57.0694L49.9431 39.0246L51.8323 38.1348C54.1509 37.0422 53.773 37.0204 55.1794 38.3298Z" fill="white"/>
</svg>
