<svg width="32" height="32" viewBox="0 0 32 32" fill="none" xmlns="http://www.w3.org/2000/svg">
<path fill-rule="evenodd" clip-rule="evenodd" d="M10.6021 6.77908C10.0262 7.52801 10.0031 7.90144 10.0031 16.4962C10.0031 27.66 9.73263 26.9924 14.2527 26.9924C15.9309 26.9924 17.7995 26.8404 18.4051 26.655C20.0007 26.1657 21.5359 24.7403 22.3178 23.0219C22.9506 21.631 23 21.1586 23 16.4962C23 11.8338 22.9506 11.3613 22.3178 9.97052C21.5359 8.2521 20.0007 6.82669 18.4051 6.33736C17.7995 6.15197 15.9309 6 14.2527 6C11.2999 6 11.1814 6.02543 10.6021 6.77908ZM15.0392 8.2385C15.4249 8.63321 15.4931 9.69909 15.4931 15.3212V21.9391L17.4435 22.0264C19.1827 22.1044 19.4035 22.1822 19.4818 22.7451C19.6459 23.9213 18.3055 24.627 15.9083 24.627C12.7143 24.627 12.8689 25.0738 12.9599 16.1092L13.0371 8.53032L13.7594 8.1566C14.6459 7.69772 14.5014 7.68856 15.0392 8.2385Z" fill="black"/>
</svg>
